<svg width="772" height="593" viewBox="0 0 772 593" fill="none" xmlns="http://www.w3.org/2000/svg">
<path d="M79.0885 572.168C79.0885 572.168 -45.4964 426.572 131.655 379.794C308.805 333.016 355.484 292.99 439.232 171.779C522.981 50.568 883.315 82.9866 736.743 577.787L79.0885 572.168Z" fill="#E2EEFC"/>
<path d="M128.227 287.276C244.357 290.08 359.788 226.23 419.127 126.37C430.583 107.087 426.023 79.8196 408.915 65.3158C391.806 50.8119 364.159 50.7747 347.013 65.2372C318.629 89.1718 280.993 98.6067 244.477 105.255C207.961 111.903 170.279 116.732 137.257 133.7C104.235 150.668 76.1328 183.19 76.6496 220.314C77.1664 257.438 115.535 286.97 128.227 287.276Z" fill="#E2EEFC"/>
<path d="M724.898 404.357H589.286V567.046H724.898V404.357Z" fill="#CCDEFF"/>
<path d="M631.284 412.874H597.795V419.076H631.284V412.874Z" fill="#E2EEFC"/>
<path d="M671.803 412.874H638.313V419.076H671.803V412.874Z" fill="#E2EEFC"/>
<path d="M711.493 412.874H678.004V419.076H711.493V412.874Z" fill="#E2EEFC"/>
<path d="M631.697 424.037H598.208V430.239H631.697V424.037Z" fill="#E2EEFC"/>
<path d="M672.216 424.037H638.727V430.239H672.216V424.037Z" fill="#E2EEFC"/>
<path d="M711.907 424.037H678.418V430.239H711.907V424.037Z" fill="#E2EEFC"/>
<path d="M631.697 435.2H598.208V441.402H631.697V435.2Z" fill="#E2EEFC"/>
<path d="M672.216 435.2H638.727V441.402H672.216V435.2Z" fill="#E2EEFC"/>
<path d="M711.907 435.2H678.418V441.402H711.907V435.2Z" fill="#E2EEFC"/>
<path d="M632.112 446.364H598.622V452.565H632.112V446.364Z" fill="#E2EEFC"/>
<path d="M672.629 446.364H639.14V452.565H672.629V446.364Z" fill="#E2EEFC"/>
<path d="M712.321 446.364H678.831V452.565H712.321V446.364Z" fill="#E2EEFC"/>
<path d="M632.525 457.527H599.035V463.729H632.525V457.527Z" fill="#E2EEFC"/>
<path d="M673.043 457.527H639.554V463.729H673.043V457.527Z" fill="#E2EEFC"/>
<path d="M712.734 457.527H679.244V463.729H712.734V457.527Z" fill="#E2EEFC"/>
<path d="M632.525 468.69H599.035V474.892H632.525V468.69Z" fill="#E2EEFC"/>
<path d="M673.043 468.69H639.554V474.892H673.043V468.69Z" fill="#E2EEFC"/>
<path d="M712.734 468.69H679.244V474.892H712.734V468.69Z" fill="#E2EEFC"/>
<path d="M712.734 485.704H599.035V527.049H712.734V485.704Z" fill="#E2EEFC"/>
<path d="M727.937 367.705H685.765V567.05H727.937V367.705Z" fill="#CCDEFF"/>
<path d="M736.355 385.954H723.951V567.046H736.355V385.954Z" fill="#CCDEFF"/>
<path d="M179.52 462.447H114.195V567.463H179.52V462.447Z" fill="#CCDEFF"/>
<path d="M169.626 472.82H121.046V482.33H169.626V472.82Z" fill="#E2EEFC"/>
<path d="M169.626 488.701H121.046V498.21H169.626V488.701Z" fill="#E2EEFC"/>
<path d="M169.651 504.582H121.07V514.091H169.651V504.582Z" fill="#E2EEFC"/>
<path d="M169.651 520.144H121.07V529.653H169.651V520.144Z" fill="#E2EEFC"/>
<path d="M227.108 428.957H161.783V567.463H227.108V428.957Z" fill="#CCDEFF"/>
<path d="M366.9 456.245H220.906V567.463H366.9V456.245Z" fill="#CCDEFF"/>
<path d="M114.195 505.859H77.8115V567.463H114.195V505.859Z" fill="#CCDEFF"/>
<path d="M246.392 404.093H245.151V456.245H246.392V404.093Z" fill="#CCDEFF"/>
<path d="M260.317 416.099H259.076V456.245H260.317V416.099Z" fill="#CCDEFF"/>
<path d="M235.398 395.77H232.504V456.245H235.398V395.77Z" fill="#CCDEFF"/>
<path d="M133.858 447.393H121.868V462.447H133.858V447.393Z" fill="#CCDEFF"/>
<path d="M192.795 412.692H166.748V428.958H192.795V412.692Z" fill="#CCDEFF"/>
<path d="M215.577 395.77H204.414V428.957H215.577V395.77Z" fill="#CCDEFF"/>
<path d="M150.322 426.01H140.399V462.451H150.322V426.01Z" fill="#CCDEFF"/>
<path d="M92.0754 511.854H82.3594V521.57H92.0754V511.854Z" fill="#E2EEFC"/>
<path d="M107.993 511.854H98.2773V521.57H107.993V511.854Z" fill="#E2EEFC"/>
<path d="M92.0754 528.185H82.3594V537.901H92.0754V528.185Z" fill="#E2EEFC"/>
<path d="M107.993 528.185H98.2773V537.901H107.993V528.185Z" fill="#E2EEFC"/>
<path d="M92.0754 544.517H82.3594V554.233H92.0754V544.517Z" fill="#E2EEFC"/>
<path d="M107.993 544.517H98.2773V554.233H107.993V544.517Z" fill="#E2EEFC"/>
<path d="M173.372 437.76H169.651V563.035H173.372V437.76Z" fill="#E2EEFC"/>
<path d="M189.911 437.76H186.189V563.035H189.911V437.76Z" fill="#E2EEFC"/>
<path d="M204.798 437.76H201.077V563.035H204.798V437.76Z" fill="#E2EEFC"/>
<path d="M220.509 437.76H216.788V563.035H220.509V437.76Z" fill="#E2EEFC"/>
<path d="M589.287 516.419H522.308V567.401H589.287V516.419Z" fill="#CCDEFF"/>
<path d="M652.147 554.535H649.666V557.015H652.147V554.535Z" fill="#CCDEFF"/>
<path d="M316.384 211.768C300.479 231.954 279.951 248.018 256.533 258.604C258.15 263.776 263.748 266.931 269.164 267.175C274.58 267.418 279.819 265.318 284.652 262.862C289.485 260.406 294.161 257.533 299.379 256.036C303.641 254.774 307.557 252.549 310.823 249.533C314.089 246.517 316.618 242.791 318.216 238.642C321.329 230.349 320.291 220.603 316.384 211.768Z" fill="#E44531"/>
<path d="M342.783 177.216C339.761 180.706 341.452 188.152 345.723 188.35C339.496 187.937 329.296 192.274 323.595 196.284C324.587 195.474 325.318 194.389 325.696 193.165C326.075 191.942 326.085 190.634 325.724 189.405C325.58 188.903 325.363 188.425 325.079 187.986C324.292 186.816 323.123 185.955 321.772 185.551C320.259 185.067 318.62 185.158 317.17 185.808C318.932 184.834 320.612 183.72 322.193 182.475C325.974 179.507 329.169 175.862 331.616 171.725C333.27 170.899 335.048 170.196 336.904 170.072C337.425 170.043 337.947 170.068 338.463 170.146C339.797 170.318 341.03 170.953 341.944 171.94C343.168 173.346 343.908 175.914 342.783 177.216Z" fill="#FBB8A5"/>
<path d="M282.978 563.159L233.942 556.796C234.233 554.198 234.704 551.623 235.352 549.089C238.313 548.293 241.248 547.404 244.159 546.423C244.269 547.496 244.621 548.531 245.188 549.449C246.102 550.814 248.041 551.64 249.438 550.789C249.228 548.783 249.025 546.787 248.814 544.777C249.418 544.558 250.009 544.331 250.613 544.095C250.613 544.405 250.613 544.715 250.613 545.021C250.563 546.158 250.468 547.316 250.77 548.416C251.072 549.515 251.874 550.553 252.994 550.776C254.115 551 255.409 550.045 255.247 548.92C254.955 546.814 254.658 544.708 254.354 542.602C254.979 542.346 255.595 542.081 256.207 541.817C256.554 544.386 256.899 546.957 257.24 549.532C258.526 550.359 260.329 549.185 260.734 547.713C260.952 546.719 260.898 545.685 260.577 544.719C260.445 544.219 260.275 543.723 260.118 543.239C260.097 543.169 260.068 543.094 260.048 543.024C259.738 542.158 259.554 541.251 259.502 540.333C260.039 540.089 260.573 539.836 261.102 539.58C261.201 539.725 261.309 539.865 261.416 539.994C263.85 543.199 267.271 545.514 271.152 546.579C275.033 547.645 279.157 547.403 282.887 545.889C283.387 545.683 283.883 545.476 284.358 545.211C283.92 551.029 283.494 556.846 282.978 563.159Z" fill="#F75C3D"/>
<path d="M282.66 566.897C266.333 564.416 249.997 561.973 233.562 559.827C233.682 558.814 233.811 557.797 233.943 556.796C250.291 558.921 266.636 561.042 282.978 563.159C282.876 564.383 282.77 565.629 282.66 566.897Z" fill="black"/>
<path d="M257.224 549.528C256.88 546.956 256.535 544.385 256.19 541.813C257.29 541.329 258.39 540.837 259.498 540.329C259.55 541.247 259.734 542.154 260.044 543.02C260.044 543.09 260.093 543.165 260.114 543.235C260.271 543.719 260.441 544.215 260.573 544.715C260.894 545.681 260.948 546.715 260.73 547.709C260.313 549.181 258.514 550.359 257.224 549.528Z" fill="white"/>
<path d="M252.99 550.772C251.869 550.553 251.071 549.507 250.766 548.411C250.46 547.316 250.559 546.154 250.608 545.017C250.608 544.711 250.608 544.401 250.608 544.091C251.849 543.615 253.089 543.111 254.329 542.594C254.633 544.697 254.93 546.803 255.223 548.912C255.392 550.04 254.094 550.987 252.99 550.772Z" fill="white"/>
<path d="M249.439 550.789C248.041 551.645 246.102 550.814 245.189 549.449C244.62 548.532 244.267 547.497 244.159 546.423C245.717 545.902 247.268 545.351 248.815 544.769C249.021 546.781 249.229 548.788 249.439 550.789Z" fill="white"/>
<path d="M282.87 545.893C279.141 547.407 275.017 547.649 271.136 546.584C267.255 545.518 263.833 543.203 261.399 539.998C263.378 535.164 264.428 530.001 264.496 524.779C272.29 526.916 280.079 529.045 287.587 531.046C286.022 535.991 284.449 540.94 282.87 545.893Z" fill="#FBB8A5"/>
<path d="M337.884 170.853C341.088 172.375 342.593 176.708 341.018 179.887C341.985 178.733 340.625 180.197 341.254 181.541C342.907 176.951 348.063 171.204 349.713 166.607C350.628 164.067 350.714 161.302 349.96 158.71C349.206 156.118 347.65 153.831 345.516 152.178C343.382 150.525 340.778 149.59 338.08 149.508C335.381 149.427 332.726 150.202 330.496 151.723C326.072 154.737 314.044 150.193 315.541 155.328C316 156.903 323.173 169.48 324.815 169.505C326.456 169.53 332.67 167.756 334.299 167.975C335.928 168.195 337.632 169.476 337.884 170.853Z" fill="#38385C"/>
<path d="M333.675 174.26C332.562 179.983 329.798 185.255 325.724 189.425C325.58 188.923 325.363 188.445 325.079 188.007C324.292 186.837 323.123 185.976 321.771 185.572C320.275 186.032 318.743 186.366 317.19 186.568C317.116 186.357 317.037 186.155 316.963 185.94C316.893 185.741 316.818 185.526 316.748 185.349C318.609 184.451 320.432 183.496 322.197 182.504C325.765 180.514 329.206 178.305 332.5 175.889C332.823 175.653 333.133 175.422 333.439 175.186C333.505 174.851 333.613 174.545 333.675 174.26Z" fill="#F8856C"/>
<path d="M338.5 170.101L338.455 170.154C337.057 171.808 335.188 172.949 333.266 173.908C333.109 174.442 332.79 175.124 332.484 175.86C332.159 176.591 331.925 177.359 331.786 178.146C330.397 181.971 327.8 182.988 324.1 184.625C323.19 185.039 322.446 185.316 321.76 185.551C320.263 186.012 318.731 186.345 317.179 186.548C316.174 186.701 314.975 186.887 313.457 187.147C308.256 177.567 307.417 164.858 312.85 155.072C314.917 151.351 321.119 149.635 326.25 150.739C322.947 152.823 319.342 154.382 315.562 155.361C317.204 155.4 318.813 155.827 320.259 156.606C321.705 157.385 322.946 158.494 323.882 159.844C324.817 161.194 325.421 162.745 325.644 164.372C325.866 166 325.701 167.656 325.162 169.208C325.923 167.967 329.673 168.434 330.756 167.33C331.935 166.136 331.05 165.995 331.629 164.614C331.786 162.96 334.027 159.558 336.177 159.764C338.326 159.971 340.084 161.935 340.435 164.081C340.786 166.227 339.902 168.443 338.5 170.101Z" fill="#FBB6A6"/>
<path d="M351.97 163.638C345.496 156.936 336.16 153.951 327.015 154.571H326.998L326.217 154.637C316.236 158.797 304.023 157.585 295.051 151.384C300.318 151.074 306.284 150.486 312.254 149.908C314.007 148.667 315.694 147.427 317.389 146.187C318.008 142.944 319.274 139.859 321.111 137.115C331.806 134.044 344.156 137.901 351.201 146.513C352.549 152.12 352.81 157.933 351.97 163.638Z" fill="#F75C3D"/>
<path d="M326.998 154.575L326.217 154.641C316.236 158.801 304.023 157.589 295.051 151.388C300.318 151.078 306.284 150.49 312.254 149.912C316.819 155.014 320.759 154.828 326.998 154.575Z" fill="#E44531"/>
<path d="M263.806 286.354H272.976C272.976 286.354 274.837 287.743 271.186 287.743C269.164 287.771 267.145 287.565 265.17 287.132L263.806 286.354Z" fill="#F8856C"/>
<path d="M313.469 167.624C314.156 167.624 314.714 166.213 314.714 164.473C314.714 162.734 314.156 161.323 313.469 161.323C312.782 161.323 312.225 162.734 312.225 164.473C312.225 166.213 312.782 167.624 313.469 167.624Z" fill="#38385C"/>
<path d="M311.721 176.228C313.82 176.117 315.865 175.515 317.691 174.472C319.517 173.429 321.073 171.973 322.235 170.22C322.321 171.519 322.036 172.816 321.414 173.959C320.792 175.102 319.858 176.045 318.72 176.679C316.434 177.906 313.432 177.638 311.721 176.228Z" fill="#FEFEFE"/>
<path d="M313.32 159.032C313.983 158.57 314.756 158.292 315.561 158.227C316.367 158.162 317.175 158.313 317.902 158.664C318.63 159.016 319.251 159.554 319.701 160.225C320.151 160.896 320.415 161.674 320.465 162.481C318.573 160.513 316.038 159.29 313.32 159.032Z" fill="#38385C"/>
<path d="M334.567 163.192C334.707 162.86 334.939 162.575 335.236 162.371C335.534 162.168 335.883 162.054 336.243 162.044C336.603 162.033 336.958 162.126 337.267 162.312C337.575 162.498 337.824 162.769 337.982 163.093C338.275 163.689 338.443 164.34 338.476 165.004C338.509 165.668 338.407 166.332 338.174 166.955C337.942 167.578 337.586 168.147 337.126 168.627C336.666 169.108 336.114 169.489 335.502 169.749C336.286 169.06 336.918 168.215 337.358 167.268C337.574 166.794 337.681 166.276 337.671 165.755C337.661 165.233 337.534 164.721 337.3 164.254C337.04 163.787 336.624 163.425 336.125 163.231C335.626 163.037 335.075 163.023 334.567 163.192Z" fill="#F8856C"/>
<path d="M294.058 211.768H161.783V286.371H294.058V211.768Z" fill="#FEBE3D"/>
<path d="M294.058 281.294H161.783V286.375H294.058V281.294Z" fill="#EC7F37"/>
<path d="M294.058 282.666V211.768L300.408 215.208V282.666H294.058Z" fill="#EC7F37"/>
<path d="M284.644 275.183C278.046 275.354 271.728 277.877 266.828 282.298C268.068 283.514 270.111 283.626 271.756 283.039C273.402 282.451 274.77 281.277 276.093 280.144C275.972 281.537 275.488 282.873 274.69 284.02C273.892 285.167 272.808 286.086 271.546 286.685C269.023 287.855 266.377 287.223 263.628 286.383C266.398 288.719 270.065 289.298 273.683 289.526C277.301 289.753 280.914 289.203 284.499 288.661C284.569 284.035 284.623 279.425 284.644 275.183Z" fill="#FBB8A5"/>
<path d="M365.957 309.9C350.922 312.32 335.703 313.4 320.477 313.13C314.361 313.03 308.253 312.706 302.153 312.158C302.98 300.824 303.807 289.491 304.634 278.16C324.571 276.353 341.845 258.653 343.176 238.68C344.003 226.214 352.313 219.152 364.675 215.113C364.675 215.998 364.675 216.878 364.704 217.751C365.035 249.777 365.61 278.168 365.957 309.9Z" fill="#F75C3D"/>
<path d="M386.034 305.849C379.402 307.467 372.71 308.817 365.957 309.9C350.923 312.32 335.703 313.4 320.478 313.129C329.859 279.512 344.482 247.288 364.717 217.767C366.387 215.322 368.097 212.898 369.848 210.495C379.649 241.372 385.097 273.466 386.034 305.849Z" fill="#F75C3D"/>
<path d="M316.509 203.706C308.002 226.125 304.475 250.127 306.172 274.046C329.594 258.298 344.867 231.014 346.016 202.788C346.198 198.418 342.486 194.519 338.219 193.539C333.952 192.559 329.425 194.052 325.815 196.553C322.206 199.054 319.432 202.49 316.509 203.706Z" fill="#F75C3D"/>
<path d="M344.205 188.408C347.649 187.337 366.383 201.275 369.426 209.184C362.687 209.283 347.691 209.225 341.754 212.409C344.276 205.149 340.352 196.284 333.286 193.246C337.218 191.426 341.138 189.603 344.205 188.408Z" fill="#E44531"/>
<path d="M282.613 274.501C294.416 273.063 305.767 269.083 315.884 262.837C321.258 259.501 324.698 253.671 326.633 247.631C328.568 241.59 329.18 235.227 330.247 228.98C331.314 222.733 332.897 216.407 336.449 211.169C340 205.93 346.086 203.553 352.251 202.073C360.449 200.096 372.75 208.87 371.141 214.724C359.329 257.777 359.106 258.55 348.348 275.286C346.992 277.395 344.734 278.528 342.406 279.462C305.051 294.441 292.077 291.068 290.725 290.625C289.113 285.953 284.565 278.652 282.613 274.501Z" fill="#E44531"/>
<path d="M279.823 275.299C281.961 280.723 283.16 286.462 285.293 291.895C284.987 292.002 285.616 291.791 285.293 291.895L291.855 291.68L286.968 276.593C286.736 275.921 286.321 275.327 285.769 274.879C285.217 274.431 284.551 274.147 283.846 274.058C282.42 273.901 280.935 274.621 279.823 275.299Z" fill="#F75C3D"/>
<path d="M344.664 183.736L314.342 198.145C314.466 201.375 314.588 204.603 314.71 207.828L347.108 188.697C346.244 187.077 345.379 185.423 344.664 183.736Z" fill="#463E52"/>
<path d="M316.955 185.915C317.026 185.874 317.092 185.845 317.162 185.807C317.097 185.851 317.028 185.888 316.955 185.919C316.815 186.006 316.678 186.076 316.542 186.155C316.675 186.066 316.813 185.986 316.955 185.915Z" fill="#FFA8A8"/>
<path d="M313.13 321.514L237.589 527.706L297.093 533.139L339.26 450.093L367.201 323.842L313.13 321.514Z" fill="#1A1A35"/>
<path d="M358.755 534.375L440.618 170.795C441.285 167.831 442.918 165.173 445.26 163.238C447.603 161.303 450.522 160.202 453.559 160.107L628.862 154.625C630.941 154.555 633.009 154.96 634.908 155.809C636.807 156.659 638.487 157.93 639.82 159.527C641.154 161.124 642.106 163.003 642.603 165.023C643.101 167.043 643.131 169.15 642.691 171.184L640.876 179.701L564.053 539.75C563.4 542.812 561.717 545.558 559.286 547.531C556.855 549.504 553.822 550.585 550.691 550.594L372.163 551.111C368.911 551.118 365.762 549.97 363.277 547.872C360.792 545.774 359.132 542.862 358.593 539.655C358.307 537.901 358.362 536.108 358.755 534.375ZM566.679 160.426L514.646 161.889C513.996 161.913 513.381 162.191 512.934 162.664C512.487 163.136 512.244 163.765 512.256 164.416C512.256 164.449 512.256 164.482 512.256 164.515C512.304 165.148 512.592 165.739 513.062 166.166C513.532 166.592 514.148 166.823 514.782 166.809L566.815 165.346C567.166 165.38 567.519 165.339 567.853 165.226C568.186 165.113 568.492 164.931 568.749 164.69C569.007 164.45 569.21 164.158 569.346 163.833C569.481 163.508 569.546 163.158 569.536 162.806C569.526 162.454 569.441 162.108 569.287 161.792C569.133 161.475 568.914 161.195 568.643 160.97C568.372 160.745 568.057 160.58 567.717 160.486C567.378 160.392 567.022 160.372 566.674 160.426H566.679ZM383.64 527.789L545.766 527.317C548.61 527.309 551.365 526.327 553.572 524.535C555.78 522.744 557.308 520.25 557.901 517.469L629.304 182.785C629.941 179.798 629.458 176.681 627.947 174.027C626.437 171.373 624.003 169.366 621.109 168.389C619.705 167.916 618.228 167.701 616.747 167.752L457.569 172.714C454.812 172.8 452.161 173.801 450.034 175.558C447.907 177.315 446.424 179.73 445.819 182.421L433.535 236.997L433.461 237.315L371.452 512.611C371.041 514.436 371.047 516.329 371.469 518.152C371.891 519.974 372.718 521.678 373.889 523.136C375.061 524.594 376.545 525.77 378.234 526.576C379.922 527.381 381.77 527.796 383.64 527.789Z" fill="#38385C"/>
<path d="M361.492 561.514C361.745 561.884 362.03 562.231 362.343 562.551C363.692 564.305 365.431 565.72 367.422 566.686C369.412 567.651 371.6 568.139 373.813 568.112L559.452 567.211C566.158 567.178 571.954 562.613 573.368 556.242L653.363 196.007L655.938 184.398C656.15 183.447 656.259 182.477 656.265 181.504C655.355 178.489 651.667 173.45 648.058 168.997C644.097 164.11 640.231 159.934 640.231 159.934L640.194 160.062C641.39 161.628 642.231 163.435 642.659 165.358C643.087 167.282 643.093 169.275 642.675 171.2L640.86 179.717L564.053 539.75C563.4 542.812 561.717 545.558 559.286 547.531C556.855 549.504 553.822 550.585 550.691 550.594L372.163 551.111C368.911 551.118 365.762 549.97 363.277 547.872C360.792 545.774 359.132 542.862 358.593 539.655C358.593 539.655 357.556 555.874 361.492 561.514Z" fill="#1A1A35"/>
<path d="M383.64 527.788L545.766 527.317C548.609 527.309 551.364 526.327 553.572 524.535C555.78 522.743 557.307 520.25 557.901 517.469L629.304 182.785C629.941 179.798 629.458 176.681 627.947 174.027C626.436 171.373 624.003 169.366 621.109 168.389C619.705 167.916 618.227 167.701 616.747 167.752L457.569 172.713C454.811 172.8 452.161 173.801 450.034 175.558C447.907 177.315 446.424 179.73 445.819 182.421L433.535 236.997L433.46 237.315L371.451 512.611C371.04 514.436 371.046 516.329 371.468 518.152C371.89 519.974 372.718 521.678 373.889 523.136C375.06 524.594 376.545 525.77 378.233 526.576C379.921 527.381 381.769 527.796 383.64 527.788Z" fill="#E2EEFC"/>
<g opacity="0.64">
<path d="M548.917 169.873L617.008 240.383L620.237 225.234L566.253 169.327L548.917 169.873Z" fill="white"/>
<path d="M493.068 171.618L606.598 289.187L614.747 250.984L536.787 170.25L493.068 171.618Z" fill="white"/>
<path d="M412.367 330.875L564.165 488.077L575.209 436.309L423.907 279.619L412.367 330.875Z" fill="white"/>
<path d="M402.47 374.849L549.211 526.817C551.368 526.188 553.314 524.987 554.843 523.341C556.371 521.695 557.426 519.666 557.894 517.469L557.923 517.337L405.843 359.845L402.47 374.849Z" fill="white"/>
<path d="M389.565 432.166L481.628 527.507L542.492 527.33L401.105 380.906L389.565 432.166Z" fill="white"/>
<path d="M493.068 171.618L606.598 289.187L614.747 250.984L536.787 170.25L493.068 171.618Z" fill="white"/>
<path d="M548.917 169.873L617.008 240.383L620.237 225.234L566.253 169.327L548.917 169.873Z" fill="white"/>
<path d="M402.47 374.849L549.211 526.817C551.368 526.188 553.314 524.987 554.843 523.341C556.371 521.695 557.426 519.666 557.894 517.469L557.923 517.337L405.843 359.845L402.47 374.849Z" fill="white"/>
<path d="M389.565 432.166L481.628 527.507L542.492 527.33L401.105 380.906L389.565 432.166Z" fill="white"/>
<path d="M412.367 330.875L564.165 488.077L575.209 436.309L423.907 279.619L412.367 330.875Z" fill="white"/>
</g>
<path d="M512.26 164.527C512.308 165.16 512.596 165.751 513.066 166.178C513.536 166.605 514.152 166.835 514.787 166.822L566.819 165.358C567.17 165.393 567.523 165.352 567.857 165.239C568.19 165.126 568.496 164.943 568.753 164.703C569.011 164.463 569.214 164.17 569.35 163.845C569.485 163.521 569.55 163.17 569.54 162.819C569.53 162.467 569.445 162.121 569.291 161.804C569.137 161.488 568.918 161.207 568.647 160.982C568.376 160.757 568.061 160.592 567.721 160.498C567.382 160.405 567.027 160.384 566.679 160.438L514.646 161.902C513.996 161.926 513.381 162.204 512.934 162.676C512.488 163.149 512.244 163.778 512.256 164.428C512.256 164.461 512.257 164.494 512.26 164.527Z" fill="white"/>
<path d="M450.71 409.571C456.711 424.918 462.716 440.267 468.724 455.617C466.304 456.616 463.818 457.445 461.282 458.097C459.157 455.892 456.966 453.747 454.708 451.66C455.597 451.046 456.335 450.239 456.867 449.299C457.623 447.84 457.416 445.744 455.994 444.929C454.34 446.078 452.687 447.225 451.033 448.369C450.549 447.955 450.065 447.542 449.569 447.129C449.838 446.971 450.115 446.835 450.396 446.715C451.417 446.215 452.463 445.735 453.29 444.946C454.117 444.156 454.634 442.949 454.287 441.861C453.939 440.774 452.484 440.096 451.574 440.782C449.871 442.053 448.169 443.328 446.468 444.607C445.943 444.193 445.418 443.78 444.889 443.366L451.157 438.748C451.268 437.218 449.367 436.205 447.882 436.561C446.906 436.847 446.026 437.393 445.335 438.14C444.963 438.5 444.608 438.884 444.26 439.256C444.207 439.31 444.157 439.368 444.107 439.422C443.498 440.111 442.792 440.708 442.011 441.196C441.54 440.844 441.06 440.497 440.585 440.154C440.663 439.997 440.734 439.835 440.804 439.674C442.444 435.999 442.827 431.886 441.894 427.971C440.961 424.057 438.765 420.558 435.644 418.018C435.231 417.679 434.788 417.352 434.342 417.05C439.626 414.582 444.926 412.159 450.71 409.571Z" fill="#F75C3D"/>
<path d="M454.142 408.053C459.839 423.55 465.536 439.062 471.564 454.496C470.618 454.877 469.663 455.257 468.724 455.621C462.721 440.265 456.716 424.917 450.71 409.575C451.835 409.075 452.976 408.566 454.142 408.053Z" fill="black"/>
<path d="M451.148 438.707L444.88 443.325C443.93 442.593 442.966 441.865 441.986 441.154C442.766 440.666 443.472 440.068 444.082 439.38C444.136 439.327 444.186 439.269 444.236 439.215C444.583 438.843 444.938 438.459 445.31 438.099C446.002 437.353 446.882 436.807 447.857 436.519C449.379 436.164 451.26 437.177 451.148 438.707Z" fill="white"/>
<path d="M454.282 441.828C454.626 442.916 454.096 444.119 453.286 444.913C452.476 445.706 451.409 446.182 450.392 446.682C450.119 446.823 449.842 446.959 449.565 447.096C448.548 446.23 447.513 445.381 446.46 444.549C448.159 443.271 449.867 441.994 451.566 440.724C452.48 440.067 453.927 440.749 454.282 441.828Z" fill="white"/>
<path d="M455.994 444.925C457.416 445.752 457.619 447.819 456.866 449.295C456.335 450.235 455.597 451.042 454.708 451.656C453.501 450.553 452.273 449.451 451.024 448.348L455.994 444.925Z" fill="white"/>
<path d="M435.627 417.972C438.748 420.513 440.945 424.011 441.877 427.926C442.81 431.841 442.427 435.954 440.787 439.629C435.597 440.221 430.565 441.783 425.953 444.234C424.075 436.379 422.194 428.523 420.338 420.978L435.627 417.972Z" fill="#FBB8A5"/>
<path d="M328.912 329.031C328.912 329.031 267.941 430.764 308.889 461.546C349.837 492.327 434.127 451.271 434.127 451.271L419.698 414.354C419.698 414.354 349.411 442.469 358.581 408.153C367.752 373.836 380.833 323.354 380.833 323.354L328.912 329.031Z" fill="#38385C"/>
<path d="M385.997 327.046C379.454 328.415 372.822 329.316 366.151 329.742C344.607 334.395 322.27 333.905 300.95 328.311C301.262 324.066 301.575 319.819 301.889 315.569C301.971 314.433 302.055 313.296 302.141 312.158C308.235 312.709 314.343 313.033 320.465 313.129C335.691 313.4 350.91 312.319 365.945 309.9C372.687 308.817 379.379 307.466 386.022 305.849C386.234 312.913 386.226 319.979 385.997 327.046Z" fill="#E44531"/>
<path d="M310.195 161.914C310.567 164.668 307.714 167.442 304.121 167.843C307.635 169.567 310.046 172.532 310.505 175.699C311.53 171.333 311.7 166.859 310.195 161.914Z" fill="#FBB6A6"/>
<path d="M337.945 170.539C339.563 173.812 340.632 177.329 341.108 180.95L348.579 168.802C345.065 169.41 341.546 170.018 337.945 170.539Z" fill="#38385C"/>
<path d="M312.225 149.986C313.582 144.607 316.924 139.941 321.581 136.925C321.908 140.222 321.514 143.55 320.427 146.679C319.915 148.155 318.207 148.841 316.657 149.048C315.106 149.254 313.465 149.172 312.225 149.986Z" fill="#F75C3D"/>
<path d="M309.335 465.568L283.229 521.384" stroke="#F2F2F2" stroke-linecap="round" stroke-linejoin="round" stroke-dasharray="6 3 6 3 6 3"/>
<path d="M414.765 543.781L414.653 544.008" stroke="#F2F2F2" stroke-linecap="round" stroke-linejoin="round" stroke-dasharray="6 3 6 3 6 3"/>
<path d="M344.545 337.498C336.867 349.343 329.123 361.321 324.364 374.609C319.606 387.898 318.026 402.811 322.851 416.078C327.676 429.346 339.803 440.422 353.86 441.369C381.838 443.254 395.345 444.164 421.393 433.778" stroke="#F2F2F2" stroke-linecap="round" stroke-linejoin="round" stroke-dasharray="6 3 6 3 6 3"/>
<path d="M562.333 92.3182L552.063 89.0106C556.197 76.7559 574.356 72.2782 583.692 81.2212C578.792 75.3584 582.865 64.7121 590.427 63.6123C597.989 62.5126 604.898 71.5712 601.884 78.5834C607.734 71.84 620.386 73.4111 624.404 81.3824C629.229 75.4039 639.789 75.5941 644.403 81.7297C666.107 77.6722 688.518 79.8631 709.025 88.0472L525.751 96.9447C538.944 94.5301 552.146 92.1156 562.333 92.3182Z" fill="#E2EEFC"/>
<path d="M247.297 26.898L257.339 22.962C252.461 10.9719 234.037 7.6643 225.285 17.1737C229.804 11.0132 225.07 0.63565 217.454 0.0278781C209.838 -0.579893 203.496 8.87984 206.96 15.6976C200.697 9.33463 188.169 11.7037 184.659 19.9107C179.466 14.2464 168.948 15.094 164.722 21.5149C142.81 18.8301 120.585 22.4262 100.638 31.8842L284.102 29.2175C270.768 27.6339 257.451 26.0546 247.297 26.898Z" fill="#E2EEFC"/>
<path d="M27.4365 579.854C27.4365 576.565 28.7433 573.41 31.0694 571.084C33.3955 568.758 36.5504 567.451 39.84 567.451H741.849C745.139 567.451 748.294 568.758 750.62 571.084C752.946 573.41 754.253 576.565 754.253 579.854C754.253 583.144 752.946 586.299 750.62 588.625C748.294 590.951 745.139 592.258 741.849 592.258H39.84C36.5504 592.258 33.3955 590.951 31.0694 588.625C28.7433 586.299 27.4365 583.144 27.4365 579.854Z" fill="#1A1A35"/>
<path d="M44.6113 118.37C44.6113 95.2165 62.8817 76.4707 85.423 76.4707C107.964 76.4707 126.235 95.2289 126.235 118.37C126.235 141.511 87.0933 183.852 87.0933 183.852C87.0933 183.852 44.6113 141.511 44.6113 118.37Z" fill="#F75C3D"/>
<path d="M85.427 140.531C97.641 140.531 107.542 130.629 107.542 118.415C107.542 106.201 97.641 96.2997 85.427 96.2997C73.2129 96.2997 63.3115 106.201 63.3115 118.415C63.3115 130.629 73.2129 140.531 85.427 140.531Z" fill="#1A1A35"/>
<path d="M87.0928 183.852L185.854 172.139L255.838 67.6848L409.03 89.1015L450.991 259.869L560.216 287.4L507.447 376.102" stroke="#F75C3D" stroke-width="8" stroke-miterlimit="10"/>
<path d="M503.851 398.044C511.729 398.044 518.115 391.658 518.115 383.78C518.115 375.902 511.729 369.516 503.851 369.516C495.973 369.516 489.587 375.902 489.587 383.78C489.587 391.658 495.973 398.044 503.851 398.044Z" fill="#F75C3D"/>
<path d="M509.681 389.612C512.902 386.391 512.902 381.168 509.681 377.947C506.46 374.726 501.237 374.726 498.016 377.947C494.795 381.168 494.795 386.391 498.016 389.612C501.237 392.833 506.46 392.833 509.681 389.612Z" fill="#F5F9FE"/>
<path d="M18.8037 331.71C16.5669 324.789 21.3423 316.462 28.4495 314.899C35.5567 313.336 43.3833 318.897 44.2557 326.116C49.6719 316.243 66.3132 315.821 72.2256 325.409C101.535 322.651 131.101 324.888 159.662 332.024L0 334.505C7.85555 332.326 15.7194 330.13 18.8037 331.71Z" fill="#E2EEFC"/>
</svg>
